<?xml version="1.0" encoding="UTF-8"?>
<svg width="1200pt" height="1200pt" version="1.1" viewBox="0 0 1200 1200" xmlns="http://www.w3.org/2000/svg">
 <path d="m621.24 24.188c219.05 80.812 304.54 277.24 240.25 488.2-54.398 178.56-165.95 318.27-317.73 426.16-139.89 99.441-290.93 179.44-444.73 254.52-6.7617 3.293-21.398 2.4648-24.988-2.1602-8.4922-10.988-4.2812-20.762 8.7617-29.812 88.801-61.559 180.28-119.93 264.35-187.48 175.81-141.24 289.05-321.79 319.44-548.62 9.2383-69 7.8281-138.49-10.414-206.21-18.719-69.559-58.48-119.85-112.29-146.62-30.32-15.078-65.094-22.492-103.08-22.078-64.539 0.69141-113.43 19.664-113.43 19.664-54.332 14.586-106.16 66.414-125.16 113.24-10.121 24.961 3.4414 48.387 30.332 49.508 11.348 0.46484 23.414-1.6914 34.215-5.3984 77.398-26.625 152.45 21.719 169.56 88.465 17.172 67.012-30.039 137.99-104.97 157.72-94.68 24.945-195.48-28.801-218.85-121.19-17.188-67.945 3.8516-130.59 41.652-187.87 58.359-88.426 146.27-129.31 245.54-151.11 81.93-17.984 193.5 0.72266 221.55 11.082zm321.07 505.56c0.19922 47.668 35.426 83.188 82.359 83.066 45.867-0.12109 82.492-37.547 82.199-84-0.29297-45.199-36.547-81.266-81.945-81.52-47.254-0.26562-82.816 35.227-82.613 82.453zm0.011718-329.04c0.14844 47.801 34.945 82.945 82.133 82.945 46.066 0 82.465-36.867 82.387-83.426-0.078125-45.133-36.094-81-81.691-81.359-47.641-0.375-82.977 34.531-82.828 81.84z"/>
</svg>
